<svg xmlns="http://www.w3.org/2000/svg">
  <defs>
    <!-- Sun Icon -->
    <symbol id="sun-icon" viewBox="0 0 24 24" fill="none" stroke="currentColor" stroke-width="2" stroke-linecap="round" stroke-linejoin="round">
      <circle cx="12" cy="12" r="4"></circle>
      <path d="M12 2v2"></path>
      <path d="M12 20v2"></path>
      <path d="m4.93 4.93 1.41 1.41"></path>
      <path d="m17.66 17.66 1.41 1.41"></path>
      <path d="M2 12h2"></path>
      <path d="M20 12h2"></path>
      <path d="m6.34 17.66-1.41 1.41"></path>
      <path d="m19.07 4.93-1.41 1.41"></path>
    </symbol>

    <!-- Moon Icon -->
    <symbol id="moon-icon" viewBox="0 0 24 24" fill="none" stroke="currentColor" stroke-width="2" stroke-linecap="round" stroke-linejoin="round">
      <path d="M12 3a6 6 0 0 0 9 9 9 9 0 1 1-9-9Z"></path>
    </symbol>

    <!-- Menu Icon -->
    <symbol id="menu-icon" viewBox="0 0 24 24" fill="none" stroke="currentColor" stroke-width="2" stroke-linecap="round" stroke-linejoin="round">
      <path d="M4 6h16"></path>
      <path d="M4 12h16"></path>
      <path d="M4 18h16"></path>
    </symbol>

    <!-- Close Icon -->
    <symbol id="close-icon" viewBox="0 0 24 24" fill="none" stroke="currentColor" stroke-width="2" stroke-linecap="round" stroke-linejoin="round">
      <path d="M18 6L6 18"></path>
      <path d="M6 6l12 12"></path>
    </symbol>

    <!-- Send Icon -->
    <symbol id="send-icon" viewBox="0 0 24 24" fill="none" stroke="currentColor" stroke-width="2" stroke-linecap="round" stroke-linejoin="round">
      <path d="M22 2L11 13"></path>
      <path d="M22 2L15 22L11 13L2 9L22 2Z"></path>
    </symbol>

    <!-- Email Icon -->
    <symbol id="email-icon" viewBox="0 0 24 24" fill="none" stroke="currentColor" stroke-width="2" stroke-linecap="round" stroke-linejoin="round">
      <rect x="2" y="4" width="20" height="16" rx="2"></rect>
      <path d="M22 6L12 13L2 6"></path>
    </symbol>

    <!-- User Icon -->
    <symbol id="user-icon" viewBox="0 0 24 24" fill="none" stroke="currentColor" stroke-width="2" stroke-linecap="round" stroke-linejoin="round">
      <path d="M20 21v-2a4 4 0 0 0-4-4H8a4 4 0 0 0-4 4v2"></path>
      <circle cx="12" cy="7" r="4"></circle>
    </symbol>

    <!-- Chat Icon -->
    <symbol id="chat-icon" viewBox="0 0 24 24" fill="none" stroke="currentColor" stroke-width="2" stroke-linecap="round" stroke-linejoin="round">
      <path d="M21 15a4 4 0 0 1-4 4H7l-4 4V7a4 4 0 0 1 4-4h10a4 4 0 0 1 4 4z"></path>
    </symbol>

    <!-- Download Icon -->
    <symbol id="download-icon" viewBox="0 0 24 24" fill="none" stroke="currentColor" stroke-width="2" stroke-linecap="round" stroke-linejoin="round">
      <path d="M21 15v4a2 2 0 0 1-2 2H5a2 2 0 0 1-2-2v-4"></path>
      <polyline points="7 10 12 15 17 10"></polyline>
      <line x1="12" x2="12" y1="15" y2="3"></line>
    </symbol>
</svg>